<svg width="288" height="74" xmlns="http://www.w3.org/2000/svg"><g fill="none" fill-rule="evenodd"><path d="M25.293 47.342s5.792-6.313 7.532-15.268c-2.169 2.642-5.937 4.395-10.231 4.395-6.723 0-12.176-4.292-12.176-9.585 0-5.295 5.453-9.587 12.176-9.587 4.179 0 7.863 1.658 10.057 4.182C29.121 6.852 13.218 3.19 13.218 3.19s.991-1.273 3.147-1.889c1.829-.524 2.725-.393 3.888-.048 1.319.391 15.358 8.207 15.358 23.15 0 14.943-10.318 22.94-10.318 22.94m.24 1.94l-.576 1.152-.799 1.571c-.877 1.713-1.77 3.465-2.526 5.267h-2.525v-7.534h-1.14v7.534H16.21c-.119 0-.231.025-.347.035-1.188-2.955-3.298-5.97-5.365-8.903-.541-.769-1.076-1.53-1.589-2.279 2.806 2.292 6.102 3.613 9.628 3.613 2.855 0 5.559-.868 7.975-2.416a904.04 904.04 0 0 0-.979 1.96M37.072 24.87C37.072 11.133 24.605 0 18.537 0 12.468 0 0 11.133 0 24.87c0 6.636 1.942 12.661 5.099 17.12 1.07 2.244 2.741 4.62 4.468 7.07 1.987 2.821 4.015 5.718 5.168 8.497a4.1 4.1 0 0 0-2.322 2.313c.995.226 2.086.415 3.245.545 3.123.345 5.898.191 7.489-.32-1.006.821-4.023 1.268-7.554 1.032a25.842 25.842 0 0 1-3.415-.45 4.07 4.07 0 0 0-.061.686v5.11c0 2.262 1.833 2.866 4.093 2.866h5.689c2.258 0 4.092-.604 4.092-2.866v-5.11a4.088 4.088 0 0 0-3.172-3.978c.712-1.653 1.54-3.274 2.353-4.86l.803-1.579.578-1.157c.449-.902 1.194-2.398 1.964-3.907h-.071c5.183-4.409 8.626-12.169 8.626-21.012m-10.08-.571c-1.087 0-2.053-.566-3.44-.566-2.473 0-3.647 1.476-3.647 2.97 0 1.436 1.293 2.93 3.647 2.93 1.088 0 2.714-.602 3.228-.602 1.027 0 1.868.584 1.868 1.27 0 1.496-3.74 2.002-5.305 2.002-4.678 0-7.782-2.565-7.782-5.6 0-2.95 3.197-5.635 7.782-5.635 1.715 0 5.305.422 5.305 1.839 0 .606-.628 1.392-1.657 1.392" fill="#8ABC00"/><path d="M48.64 15.907v-.118c0-.698.234-1.336.703-1.915s1.133-.869 1.992-.869l14.707-.039c.86.026 1.53.329 2.012.908s.723 1.217.723 1.914v.119a3.128 3.128 0 0 1-.684 1.835c-.43.553-1.113.83-2.051.83l-4.355-.04v20.047c0 1.014-.286 1.783-.86 2.309-.573.526-1.286.789-2.138.789-.853 0-1.566-.266-2.14-.799-.572-.532-.858-1.285-.858-2.26V18.532h-4.356a.566.566 0 0 0-.136.02c-.873 0-1.504-.263-1.895-.79a3.287 3.287 0 0 1-.664-1.855M70.33 13.845c0-.937.272-1.699.82-2.285.546-.586 1.23-.879 2.05-.879.86 0 1.556.293 2.09.879.533.586.801 1.361.801 2.324v7.793h.078c.43-.508.957-.908 1.582-1.201a7.14 7.14 0 0 1 1.973-.596c.298-.052.587-.091.87-.117.278-.026.548-.039.81-.039 2.265 0 4.146.681 5.644 2.041 1.496 1.361 2.246 3.265 2.246 5.713v10.996c0 .99-.268 1.771-.8 2.344-.536.573-1.23.859-2.09.859-.82 0-1.505-.286-2.052-.859-.546-.573-.82-1.341-.82-2.305V28.435c0-1.302-.369-2.278-1.103-2.93-.737-.651-1.625-.976-2.666-.976-1.172 0-2.079.378-2.715 1.132-.639.756-.957 1.693-.957 2.813v10c0 .99-.268 1.771-.8 2.344-.535.573-1.232.859-2.09.859-.82 0-1.505-.286-2.052-.859-.547-.573-.82-1.341-.82-2.305V13.845zM97.467 28.923v-.039h9.16c-.156-1.224-.628-2.256-1.416-3.096-.788-.84-1.846-1.26-3.174-1.26-1.276 0-2.324.427-3.144 1.28-.821.853-1.296 1.891-1.426 3.115m-5.762 1.953c0-2.93.96-5.52 2.88-7.773 1.922-2.253 4.405-3.379 7.452-3.379 2.696 0 4.942.886 6.739 2.656 1.796 1.771 2.936 3.724 3.418 5.86.05.325.097.654.136.986.039.332.059.661.059.986 0 .86-.198 1.501-.596 1.924-.397.423-1.038.635-1.924.635v-.039H97.604c.208 1.431.833 2.483 1.875 3.153 1.042.671 2.226 1.007 3.554 1.007.743 0 1.429-.119 2.06-.358a13.314 13.314 0 0 0 1.749-.803l1.465-.793c.456-.233.872-.349 1.25-.349.612 0 1.159.26 1.64.775.482.517.723 1.08.723 1.685 0 1.076-.788 2.07-2.363 2.982-1.575.913-3.308 1.5-5.195 1.762l-.938.098c-.312.027-.618.04-.918.04-3.23 0-5.837-1.048-7.822-3.145-1.986-2.096-2.98-4.733-2.98-7.91M132.075 35.915h4.16c2.527 0 4.388-.817 5.586-2.453 1.211-1.66 1.817-3.685 1.817-6.073 0-2.556-.625-4.665-1.875-6.326-1.25-1.66-3.262-2.492-6.036-2.492l-3.652-.039v17.383zm-5.996-19.863c0-.91.286-1.647.858-2.207.573-.56 1.315-.84 2.226-.84l6.635-.039c4.475.026 7.94 1.366 10.391 4.021 2.452 2.655 3.68 6.213 3.68 10.675 0 4.184-1.247 7.527-3.738 10.028-2.492 2.502-5.806 3.752-9.943 3.752H128.792c-.156 0-.313-.026-.469-.078-.56-.13-1.073-.423-1.542-.879-.468-.455-.702-1.126-.702-2.01V16.051zM157.925 31.22c0 .118.013.242.039.373a7.136 7.136 0 0 0 1.26 3.494c.735 1.073 1.819 1.61 3.252 1.61 1.38 0 2.43-.537 3.154-1.61a7.393 7.393 0 0 0 1.26-3.494c.026-.131.039-.255.039-.373v-.353c0-.131-.007-.269-.02-.413a5.656 5.656 0 0 1-.02-.471 7.317 7.317 0 0 0-1.278-3.454c-.723-1.047-1.768-1.571-3.135-1.571-1.42 0-2.493.524-3.223 1.571a7.258 7.258 0 0 0-1.29 3.454c0 .157-.006.311-.018.462-.013.15-.02.291-.02.422v-.04.393zm-5.762-.353c0-3.175.928-5.825 2.783-7.953 1.856-2.127 4.099-3.19 6.729-3.19 1.067 0 2.09.21 3.066.63.977.42 1.785 1.083 2.422 1.987a2.537 2.537 0 0 1 .918-1.704 2.756 2.756 0 0 1 1.836-.679c1.016 0 1.702.259 2.06.776a3.95 3.95 0 0 1 .675 1.685c.026.233.039.459.039.678v.601-.039 14.907c0 .209-.013.431-.04.666a3.647 3.647 0 0 1-.663 1.682c-.365.509-1.055.763-2.071.763-.82 0-1.432-.211-1.836-.632-.403-.422-.71-1.008-.918-1.761-.742.883-1.57 1.544-2.48 1.985-.911.441-1.914.662-3.008.662-2.695 0-4.954-1.036-6.777-3.108-1.824-2.072-2.735-4.724-2.735-7.956zM176.274 38.513V23.122c0-.937.273-1.7.82-2.285.547-.586 1.231-.88 2.051-.88.86 0 1.556.294 2.09.88.534.586.801 1.36.801 2.324v15.313c0 .99-.267 1.77-.8 2.344-.535.573-1.232.859-2.09.859-.82 0-1.505-.286-2.052-.86-.547-.572-.82-1.34-.82-2.304m-.37-24.023c0-.821.328-1.553.985-2.198.657-.644 1.41-.966 2.256-.966v-.04c.86.027 1.614.352 2.266.977.651.625.976 1.367.976 2.227 0 .91-.312 1.692-.937 2.343-.625.652-1.394.977-2.305.977-.859 0-1.614-.332-2.266-.996-.65-.664-.976-1.44-.976-2.324M185.541 38.513V13.845c0-.937.273-1.7.82-2.285.547-.586 1.231-.88 2.051-.88.859 0 1.556.294 2.09.88.534.586.801 1.36.801 2.324v24.59c0 .99-.267 1.77-.801 2.344-.534.573-1.231.859-2.09.859-.82 0-1.504-.286-2.051-.86-.547-.572-.82-1.34-.82-2.304M193.207 22.439c0-.586.205-1.09.615-1.514.41-.423.882-.72 1.416-.888a2.594 2.594 0 0 1 .645-.078c.69 0 1.282.182 1.777.546.495.365.866.867 1.113 1.504l3.946 10.8 4.238-10.84c.234-.611.603-1.1 1.104-1.464.5-.364 1.096-.546 1.787-.546.104 0 .208.006.312.019.105.013.215.033.332.059a3.293 3.293 0 0 1 1.436.879c.423.429.634.937.634 1.523 0 .3-.019.57-.058.81-.039.242-.11.466-.215.674l-9.648 23.965a4.583 4.583 0 0 1-1.016 1.592c-.442.449-1.009.674-1.699.674-.99 0-1.739-.257-2.246-.772-.508-.514-.762-1.084-.762-1.71 0-.077.007-.168.019-.272.013-.105.02-.195.02-.274a2.63 2.63 0 0 1 .146-.556c.072-.19.134-.381.186-.576l2.52-6.231-6.368-15.88a2.708 2.708 0 0 1-.175-.633 5.099 5.099 0 0 1-.059-.811M225.784 16.443c0-.99.254-1.81.762-2.461.508-.651 1.296-.977 2.363-.977l9.922-.04c.964.028 1.677.33 2.14.909.46.579.692 1.217.692 1.915v.118c-.026.672-.28 1.284-.762 1.836-.48.553-1.172.829-2.07.829l-7.05-.04v5.782h6.562c.99.026 1.725.329 2.207.908.481.58.722 1.215.722 1.905V27.244c-.026.664-.286 1.269-.78 1.816-.496.547-1.212.82-2.149.82l-6.563-.04v6.076h7.402c.964.026 1.68.325 2.15.898.468.573.702 1.21.702 1.914V38.845c-.026.664-.28 1.264-.762 1.797-.48.534-1.178.8-2.09.8H228.87c-.886 0-1.62-.266-2.207-.8-.586-.533-.879-1.256-.879-2.168V16.443zM249.466 30.788c0 1.558.374 2.932 1.123 4.123.749 1.19 1.868 1.786 3.359 1.786 1.492 0 2.605-.57 3.34-1.708a7.295 7.295 0 0 0 1.182-3.75v-.294c0-.13-.007-.274-.02-.431a6.442 6.442 0 0 1-.02-.491 7.454 7.454 0 0 0-1.278-3.475c-.723-1.06-1.794-1.59-3.213-1.59-1.302 0-2.322.504-3.057 1.512a7.097 7.097 0 0 0-1.338 3.317 6.843 6.843 0 0 0-.078 1.001m-5.762.118c0-2.901.853-5.49 2.559-7.767 1.706-2.276 4.01-3.415 6.914-3.415a8.975 8.975 0 0 1 1.172.078c.82.154 1.604.439 2.353.853a4.646 4.646 0 0 1 1.768 1.686c.183-.761.508-1.35.976-1.762.469-.414 1.1-.621 1.895-.621.859 0 1.556.29 2.09.872.534.582.8 1.35.8 2.306v-.038 16.655c0 3.467-1.028 6.067-3.085 7.8-2.058 1.734-4.727 2.6-8.008 2.6-.456 0-1.055-.045-1.797-.136a18.217 18.217 0 0 1-2.324-.45 13.538 13.538 0 0 1-3.418-1.386c-1.03-.6-1.543-1.38-1.543-2.344 0-.104.013-.215.039-.332.026-.117.059-.234.098-.351a3.11 3.11 0 0 1 .79-1.182c.372-.358.772-.576 1.202-.654h.195c.456 0 .93.097 1.426.293l1.62.625c.587.208 1.219.406 1.895.595.677.189 1.433.284 2.266.284 1.419 0 2.588-.39 3.506-1.17.918-.781 1.377-1.891 1.377-3.334v-1.404h-.078a5.491 5.491 0 0 1-2.344 2.043c-.977.454-2.13.68-3.457.68-3.008 0-5.241-1.123-6.7-3.371-1.457-2.248-2.187-4.8-2.187-7.653M272.815 30.788c0 1.558.373 2.932 1.123 4.123.749 1.19 1.868 1.786 3.358 1.786 1.493 0 2.606-.57 3.34-1.708a7.295 7.295 0 0 0 1.182-3.75v-.294c0-.13-.006-.274-.02-.431a6.442 6.442 0 0 1-.019-.491 7.454 7.454 0 0 0-1.279-3.475c-.723-1.06-1.793-1.59-3.212-1.59-1.303 0-2.322.504-3.058 1.512a7.097 7.097 0 0 0-1.338 3.317 6.843 6.843 0 0 0-.078 1.001m-5.762.118c0-2.901.853-5.49 2.56-7.767 1.705-2.276 4.01-3.415 6.913-3.415a8.975 8.975 0 0 1 1.173.078c.82.154 1.603.439 2.353.853a4.646 4.646 0 0 1 1.767 1.686c.184-.761.509-1.35.977-1.762.469-.414 1.1-.621 1.894-.621.86 0 1.556.29 2.09.872.534.582.801 1.35.801 2.306v-.038 16.655c0 3.467-1.029 6.067-3.085 7.8-2.058 1.734-4.728 2.6-8.009 2.6-.455 0-1.054-.045-1.796-.136a18.217 18.217 0 0 1-2.325-.45 13.538 13.538 0 0 1-3.418-1.386c-1.029-.6-1.543-1.38-1.543-2.344 0-.104.014-.215.04-.332.025-.117.058-.234.097-.351a3.11 3.11 0 0 1 .791-1.182c.372-.358.772-.576 1.202-.654h.195c.456 0 .93.097 1.425.293l1.622.625c.585.208 1.217.406 1.894.595.676.189 1.433.284 2.265.284 1.42 0 2.589-.39 3.507-1.17.918-.781 1.376-1.891 1.376-3.334v-1.404h-.077a5.491 5.491 0 0 1-2.344 2.043c-.977.454-2.13.68-3.457.68-3.008 0-5.241-1.123-6.7-3.371-1.457-2.248-2.188-4.8-2.188-7.653" fill="#3B4246"/><path d="M64.658 70h-1.494v-9.882L59.078 70h-.612l-4.068-9.882V70h-1.494V57.994h2.142l3.726 9.036 3.744-9.036h2.142V70zm9.54 0h-1.35v-.99c-.72.792-1.71 1.206-2.88 1.206-1.476 0-3.042-.99-3.042-2.88 0-1.944 1.566-2.862 3.042-2.862 1.188 0 2.178.378 2.88 1.188v-1.566c0-1.17-.936-1.836-2.196-1.836-1.044 0-1.89.378-2.664 1.206l-.63-.936c.936-.972 2.052-1.44 3.474-1.44 1.836 0 3.366.828 3.366 2.934V70zm-3.744-.756c.954 0 1.872-.36 2.394-1.08v-1.638c-.522-.72-1.44-1.08-2.394-1.08-1.26 0-2.142.792-2.142 1.908 0 1.098.882 1.89 2.142 1.89zM84.548 70H82.82l-3.132-3.906-1.44 1.422V70h-1.35V57.994h1.35v7.938l4.572-4.626h1.71l-3.852 3.942L84.548 70zm5.472.216c-2.574 0-4.428-1.854-4.428-4.572 0-2.52 1.8-4.554 4.284-4.554 2.628 0 4.176 2.052 4.176 4.662v.342h-7.038c.108 1.638 1.26 3.006 3.132 3.006.99 0 1.998-.396 2.682-1.098l.648.882c-.864.864-2.034 1.332-3.456 1.332zm2.7-5.112c-.018-1.296-.882-2.898-2.862-2.898-1.854 0-2.772 1.566-2.844 2.898h5.706zm10.35 5.112c-1.278 0-1.926-.738-1.926-2.034v-5.688h-1.44v-1.188h1.44V58.93h1.35v2.376h1.764v1.188h-1.764v5.4c0 .648.288 1.116.882 1.116.378 0 .738-.162.918-.36l.396 1.008c-.342.324-.828.558-1.62.558zM113.402 70h-1.35v-5.724c0-1.53-.792-1.98-1.962-1.98-1.044 0-2.052.648-2.574 1.35V70h-1.35V57.994h1.35v4.572c.612-.72 1.8-1.476 3.114-1.476 1.818 0 2.772.882 2.772 2.772V70zm6.624.216c-2.574 0-4.428-1.854-4.428-4.572 0-2.52 1.8-4.554 4.284-4.554 2.628 0 4.176 2.052 4.176 4.662v.342h-7.038c.108 1.638 1.26 3.006 3.132 3.006.99 0 1.998-.396 2.682-1.098l.648.882c-.864.864-2.034 1.332-3.456 1.332zm2.7-5.112c-.018-1.296-.882-2.898-2.862-2.898-1.854 0-2.772 1.566-2.844 2.898h5.706zM142.724 70h-1.35v-5.904c0-1.098-.486-1.8-1.602-1.8-.9 0-1.854.648-2.304 1.332V70h-1.35v-5.904c0-1.098-.468-1.8-1.602-1.8-.882 0-1.818.648-2.286 1.35V70h-1.35v-8.694h1.35v1.26c.36-.558 1.53-1.476 2.808-1.476 1.332 0 2.088.72 2.34 1.62.486-.792 1.656-1.62 2.916-1.62 1.584 0 2.43.882 2.43 2.628V70zm6.498.216c-2.646 0-4.302-2.052-4.302-4.572s1.656-4.554 4.302-4.554 4.302 2.034 4.302 4.554c0 2.52-1.656 4.572-4.302 4.572zm0-1.206c1.854 0 2.88-1.584 2.88-3.366 0-1.764-1.026-3.348-2.88-3.348-1.854 0-2.898 1.584-2.898 3.348 0 1.782 1.044 3.366 2.898 3.366zm9.252 1.206c-1.422 0-2.628-.432-3.51-1.368l.702-.972c.576.666 1.674 1.242 2.862 1.242 1.332 0 2.052-.63 2.052-1.494 0-.954-1.062-1.206-2.232-1.494-1.476-.342-3.15-.738-3.15-2.538 0-1.35 1.17-2.502 3.24-2.502 1.476 0 2.52.558 3.222 1.26l-.63.936c-.522-.63-1.476-1.098-2.592-1.098-1.188 0-1.926.594-1.926 1.368 0 .828.99 1.062 2.124 1.332 1.512.342 3.258.774 3.258 2.7 0 1.458-1.17 2.628-3.42 2.628zm7.812 0c-1.278 0-1.926-.738-1.926-2.034v-5.688h-1.44v-1.188h1.44V58.93h1.35v2.376h1.764v1.188h-1.764v5.4c0 .648.288 1.116.882 1.116.378 0 .738-.162.918-.36l.396 1.008c-.342.324-.828.558-1.62.558zm11.538 0c-2.646 0-4.302-2.052-4.302-4.572s1.656-4.554 4.302-4.554 4.302 2.034 4.302 4.554c0 2.52-1.656 4.572-4.302 4.572zm0-1.206c1.854 0 2.88-1.584 2.88-3.366 0-1.764-1.026-3.348-2.88-3.348-1.854 0-2.898 1.584-2.898 3.348 0 1.782 1.044 3.366 2.898 3.366zm8.226.99h-1.35v-7.506h-1.44v-1.188h1.44v-.666c0-1.8 1.008-2.826 2.52-2.826.504 0 .972.09 1.314.306l-.342 1.008a1.497 1.497 0 0 0-.774-.198c-.882 0-1.368.612-1.368 1.71v.666h1.764v1.188h-1.764V70zm11.934.216c-2.574 0-4.428-1.854-4.428-4.572 0-2.52 1.8-4.554 4.284-4.554 2.628 0 4.176 2.052 4.176 4.662v.342h-7.038c.108 1.638 1.26 3.006 3.132 3.006.99 0 1.998-.396 2.682-1.098l.648.882c-.864.864-2.034 1.332-3.456 1.332zm2.7-5.112c-.018-1.296-.882-2.898-2.862-2.898-1.854 0-2.772 1.566-2.844 2.898h5.706zM207.992 70h-1.476l-3.618-8.694h1.458l2.898 7.128 2.88-7.128h1.476L207.992 70zm8.946.216c-2.574 0-4.428-1.854-4.428-4.572 0-2.52 1.8-4.554 4.284-4.554 2.628 0 4.176 2.052 4.176 4.662v.342h-7.038c.108 1.638 1.26 3.006 3.132 3.006.99 0 1.998-.396 2.682-1.098l.648.882c-.864.864-2.034 1.332-3.456 1.332zm2.7-5.112c-.018-1.296-.882-2.898-2.862-2.898-1.854 0-2.772 1.566-2.844 2.898h5.706zm4.86 4.896h-1.35v-8.694h1.35v1.404c.702-.918 1.71-1.584 2.898-1.584v1.386a2.38 2.38 0 0 0-.54-.054c-.828 0-1.962.684-2.358 1.386V70zm4.104 3.402l.216-1.224c.198.09.522.144.738.144.594 0 .99-.198 1.296-.918l.576-1.314-3.636-8.784h1.458l2.898 7.128 2.88-7.128h1.476l-4.356 10.458c-.522 1.26-1.404 1.746-2.556 1.764-.288 0-.738-.054-.99-.126zM246.35 70h-1.476l-3.618-8.694h1.458l2.898 7.128 2.88-7.128h1.476L246.35 70zm5.688-9.936a.903.903 0 0 1-.9-.9c0-.504.414-.918.9-.918.504 0 .918.414.918.918s-.414.9-.918.9zm.684 9.936h-1.35v-8.694h1.35V70zm5.454.216c-1.422 0-2.628-.432-3.51-1.368l.702-.972c.576.666 1.674 1.242 2.862 1.242 1.332 0 2.052-.63 2.052-1.494 0-.954-1.062-1.206-2.232-1.494-1.476-.342-3.15-.738-3.15-2.538 0-1.35 1.17-2.502 3.24-2.502 1.476 0 2.52.558 3.222 1.26l-.63.936c-.522-.63-1.476-1.098-2.592-1.098-1.188 0-1.926.594-1.926 1.368 0 .828.99 1.062 2.124 1.332 1.512.342 3.258.774 3.258 2.7 0 1.458-1.17 2.628-3.42 2.628zm6.282-10.152a.903.903 0 0 1-.9-.9c0-.504.414-.918.9-.918.504 0 .918.414.918.918s-.414.9-.918.9zm.684 9.936h-1.35v-8.694h1.35V70zm4.896.216c-1.278 0-1.926-.738-1.926-2.034v-5.688h-1.44v-1.188h1.44V58.93h1.35v2.376h1.764v1.188h-1.764v5.4c0 .648.288 1.116.882 1.116.378 0 .738-.162.918-.36l.396 1.008c-.342.324-.828.558-1.62.558zm6.894 0c-2.646 0-4.302-2.052-4.302-4.572s1.656-4.554 4.302-4.554 4.302 2.034 4.302 4.554c0 2.52-1.656 4.572-4.302 4.572zm0-1.206c1.854 0 2.88-1.584 2.88-3.366 0-1.764-1.026-3.348-2.88-3.348-1.854 0-2.898 1.584-2.898 3.348 0 1.782 1.044 3.366 2.898 3.366zm7.848.99h-1.35v-8.694h1.35v1.404c.702-.918 1.71-1.584 2.898-1.584v1.386a2.38 2.38 0 0 0-.54-.054c-.828 0-1.962.684-2.358 1.386V70z" fill="#6D6D6D"/></g></svg>